HIERARCHY
ROOT Hips
{
	OFFSET 0.000000 0.000000 0.000000
	CHANNELS 6 Xposition Yposition Zposition Zrotation Yrotation Xrotation 
	JOINT LHipJoint
	{
		OFFSET 0.000000 0.000000 0.000000
		CHANNELS 3 Zrotation Yrotation Xrotation
		JOINT LeftUpLeg
		{
			OFFSET 1.363060 -1.794630 0.839290
			CHANNELS 3 Zrotation Yrotation Xrotation
			JOINT LeftLeg
			{
				OFFSET 2.448110 -6.726130 0.000000
				CHANNELS 3 Zrotation Yrotation Xrotation
				JOINT LeftFoot
				{
					OFFSET 2.562200 -7.039590 0.000000
					CHANNELS 3 Zrotation Yrotation Xrotation
					JOINT LeftToeBase
					{
						OFFSET 0.157640 -0.433110 2.322550
						CHANNELS 3 Zrotation Yrotation Xrotation
						End Site
						{
							OFFSET 0.000000 0.000000 0.000000
						}
					}
				}
			}
		}
	}
	JOINT RHipJoint
	{
		OFFSET 0.000000 0.000000 0.000000
		CHANNELS 3 Zrotation Yrotation Xrotation
		JOINT RightUpLeg
		{
			OFFSET -1.305520 -1.794630 0.839290
			CHANNELS 3 Zrotation Yrotation Xrotation
			JOINT RightLeg
			{
				OFFSET -2.542530 -6.985550 0.000000
				CHANNELS 3 Zrotation Yrotation Xrotation
				JOINT RightFoot
				{
					OFFSET -2.568260 -7.056230 0.000000
					CHANNELS 3 Zrotation Yrotation Xrotation
					JOINT RightToeBase
					{
						OFFSET -0.164730 -0.452590 2.363150
						CHANNELS 3 Zrotation Yrotation Xrotation
						End Site
						{
							OFFSET 0.000000 0.000000 0.000000
						}
					}
				}
			}
		}
	}
	JOINT LowerBack
	{
		OFFSET 0.000000 0.000000 0.000000
		CHANNELS 3 Zrotation Yrotation Xrotation
		JOINT Spine
		{
			OFFSET 0.028270 2.035590 -0.193380
			CHANNELS 3 Zrotation Yrotation Xrotation
			JOINT Spine1
			{
				OFFSET 0.056720 2.048850 -0.042750
				CHANNELS 3 Zrotation Yrotation Xrotation
				JOINT Neck
				{
					OFFSET 0.000000 0.000000 0.000000
					CHANNELS 3 Zrotation Yrotation Xrotation
					JOINT Neck1
					{
						OFFSET -0.054170 1.746240 0.172020
						CHANNELS 3 Zrotation Yrotation Xrotation
						JOINT Head
						{
							OFFSET 0.104070 1.761360 -0.123970
							CHANNELS 3 Zrotation Yrotation Xrotation
							End Site
							{
								OFFSET 0.000000 0.000000 0.000000
							}
						}
					}
				}
				JOINT LeftShoulder
				{
					OFFSET 0.000000 0.000000 0.000000
					CHANNELS 3 Zrotation Yrotation Xrotation
					JOINT LeftArm
					{
						OFFSET 3.362410 1.200890 -0.311210
						CHANNELS 3 Zrotation Yrotation Xrotation
						JOINT LeftForeArm
						{
							OFFSET 4.983000 -0.000000 -0.000000
							CHANNELS 3 Zrotation Yrotation Xrotation
							JOINT LeftHand
							{
								OFFSET 3.483560 -0.000000 -0.000000
								CHANNELS 3 Zrotation Yrotation Xrotation
								JOINT LeftFingerBase
								{
									OFFSET 0.000000 0.000000 0.000000
									CHANNELS 3 Zrotation Yrotation Xrotation
									JOINT LeftHandIndex1
									{
										OFFSET 0.715260 -0.000000 -0.000000
										CHANNELS 3 Zrotation Yrotation Xrotation
										End Site
										{
											OFFSET 0.000000 0.000000 0.000000
										}
									}
								}
								JOINT LThumb
								{
									OFFSET 0.000000 0.000000 0.000000
									CHANNELS 3 Zrotation Yrotation Xrotation
									End Site
									{
										OFFSET 0.000000 0.000000 0.000000
									}
								}
							}
						}
					}
				}
				JOINT RightShoulder
				{
					OFFSET 0.000000 0.000000 0.000000
					CHANNELS 3 Zrotation Yrotation Xrotation
					JOINT RightArm
					{
						OFFSET -3.136600 1.374050 -0.404650
						CHANNELS 3 Zrotation Yrotation Xrotation
						JOINT RightForeArm
						{
							OFFSET -5.241900 -0.000000 -0.000000
							CHANNELS 3 Zrotation Yrotation Xrotation
							JOINT RightHand
							{
								OFFSET -3.444170 -0.000000 -0.000000
								CHANNELS 3 Zrotation Yrotation Xrotation
								JOINT RightFingerBase
								{
									OFFSET 0.000000 0.000000 0.000000
									CHANNELS 3 Zrotation Yrotation Xrotation
									JOINT RightHandIndex1
									{
										OFFSET -0.622530 -0.000000 -0.000000
										CHANNELS 3 Zrotation Yrotation Xrotation
										End Site
										{
											OFFSET 0.000000 0.000000 0.000000
										}
									}
								}
								JOINT RThumb
								{
									OFFSET 0.000000 0.000000 0.000000
									CHANNELS 3 Zrotation Yrotation Xrotation
									End Site
									{
										OFFSET 0.000000 0.000000 0.000000
									}
								}
							}
						}
					}
				}
			}
		}
	}
}
MOTION
Frames: 4
Frame Time: 0.008333
-9.699016 16.841768 -0.721226 -11.279619 80.571853 -6.490241 -9.697563 2.071861 2.403935 -19.323551 7.013699 -32.064948 -2.696280 0.467464 24.134681 1.991820 8.415756 -13.705487 -0.954100 0.000001 -6.359000 10.471028 -4.356463 -1.205891 -1.164348 -18.166778 2.150410 -0.247201 -2.549027 37.007359 -0.375645 8.615567 25.123997 4.743600 0.000000 -88.770099 0.520727 0.515939 -3.264622 -0.386330 0.345998 -3.086525 -4.922603 0.258743 2.390057 10.557522 -10.693211 -10.769917 -1.781826 -0.101773 -0.808455 0.000000 0.000000 0.000000 -4.569537 22.397153 2.064960 -81.528455 21.644703 -19.694341 -4.123327 -6.337166 -0.008361 -1.352798 3.672005 -0.041325 -0.096676 -0.073026 -0.000000 0.000000 0.000000 0.000000 0.000000 0.000000 0.000000 10.735277 -4.797067 0.852284 45.792210 16.267100 -1.465974 2.065652 42.994520 0.005587 -1.100599 4.983500 -0.052907 0.088273 -0.191384 -0.000000 0.000000 0.000000 0.000000 0.000000 0.000000 0.000000 
-9.463371 16.844094 -0.702459 -10.389208 80.698788 -5.683883 -9.730231 2.094423 2.380223 -19.224378 6.582275 -31.328389 -2.635320 0.540303 25.089497 2.055096 8.682502 -14.340665 -1.104600 -0.000000 -4.395900 10.612796 -4.173645 -1.245119 -1.495379 -17.965899 0.473992 -0.483127 -2.639477 40.454694 -0.634856 7.831654 27.125185 4.691300 -0.000000 -84.823800 0.219792 0.360885 -3.178035 -0.452089 0.215890 -3.080706 -4.986750 0.128572 2.355686 10.773857 -10.940767 -10.810809 -1.810785 -0.103306 -0.820316 0.000000 0.000000 0.000000 -4.184126 21.999241 2.063530 -81.634589 21.126529 -18.505007 -4.143862 -7.283363 -0.009454 -1.934612 3.994694 -0.065522 -0.094652 -0.071798 -0.000000 0.000000 0.000000 0.000000 0.000000 0.000000 0.000000 11.078078 -5.085031 0.833499 47.072461 15.326747 -1.409899 2.143046 42.816195 0.006114 -1.060174 4.981832 -0.051086 0.091222 -0.186153 -0.000000 0.000000 0.000000 0.000000 0.000000 0.000000 0.000000 
-9.230872 16.846277 -0.681916 -9.290622 80.881540 -4.605496 -9.752262 2.125594 2.346686 -19.234643 6.246237 -30.672780 -2.600607 0.605903 25.969954 2.108503 8.859559 -15.028497 -1.262399 -0.000000 -2.822099 10.736111 -3.976423 -1.260326 -1.670415 -17.630710 -1.388714 -0.677991 -2.727093 43.868603 -0.868885 6.590624 28.275024 4.228201 0.000000 -79.972700 -0.110825 0.188817 -3.111857 -0.522043 0.069738 -3.079707 -5.048582 -0.018285 2.317051 10.973133 -11.204621 -10.858578 -1.838885 -0.104662 -0.833788 0.000000 0.000000 0.000000 -3.787304 21.561162 2.057037 -81.623116 20.579404 -17.135932 -4.164489 -8.415967 -0.010441 -2.507029 4.286673 -0.092112 -0.093031 -0.070179 -0.000000 0.000000 0.000000 0.000000 0.000000 0.000000 0.000000 11.399822 -5.398700 0.815675 48.451189 14.333051 -1.370399 2.224669 42.546713 0.006637 -1.031681 4.990034 -0.049964 0.094440 -0.180851 -0.000000 0.000000 0.000000 0.000000 0.000000 0.000000 0.000000 
-9.001201 16.848558 -0.660190 -8.022606 81.097317 -3.296267 -9.765914 2.161911 2.306812 -19.321895 5.990995 -30.062156 -2.588092 0.659712 26.734275 2.153970 8.959318 -15.759583 -1.424700 0.000000 -1.611301 10.841140 -3.773901 -1.251912 -1.697640 -17.160597 -3.422738 -0.845955 -2.823451 47.194479 -1.068134 4.982841 28.506761 3.424401 -0.000000 -74.797799 -0.448479 0.005863 -3.067213 -0.592096 -0.088022 -3.083970 -5.109040 -0.177276 2.271998 11.146665 -11.464654 -10.906854 -1.866521 -0.105977 -0.847108 0.000000 0.000000 0.000000 -3.401163 21.090411 2.044248 -81.479443 20.014891 -15.636368 -4.180887 -9.734001 -0.011240 -3.030992 4.527137 -0.118199 -0.091848 -0.068174 -0.000000 0.000000 0.000000 0.000000 0.000000 0.000000 0.000000 11.687543 -5.715817 0.798248 49.923831 13.267411 -1.378702 2.309421 42.177986 0.007154 -1.013482 5.009559 -0.049442 0.097763 -0.175529 -0.000000 0.000000 0.000000 0.000000 0.000000 0.000000 0.000000 
